<svg xmlns="http://www.w3.org/2000/svg" xmlns:xlink="http://www.w3.org/1999/xlink" width="60" zoomAndPan="magnify" viewBox="0 0 45 44.999999" height="60" preserveAspectRatio="xMidYMid meet" version="1.0"><defs><clipPath id="f6fe00fb82"><path d="M 21 13.132812 L 45 13.132812 L 45 31.882812 L 21 31.882812 Z M 21 13.132812 " clip-rule="nonzero"/></clipPath><clipPath id="f8afe9ac6c"><path d="M 0 13.132812 L 24 13.132812 L 24 31.882812 L 0 31.882812 Z M 0 13.132812 " clip-rule="nonzero"/></clipPath></defs><g clip-path="url(#f6fe00fb82)"><path fill="#cfd8dc" d="M 35.503906 31.859375 C 40.726562 31.859375 44.972656 27.660156 44.972656 22.496094 C 44.972656 17.335938 40.726562 13.132812 35.503906 13.132812 C 28.636719 13.132812 22.136719 21.28125 21.863281 21.628906 C 21.460938 22.136719 21.460938 22.855469 21.863281 23.367188 C 22.136719 23.714844 28.636719 31.859375 35.503906 31.859375 Z M 35.503906 15.945312 C 39.175781 15.945312 42.164062 18.882812 42.164062 22.496094 C 42.164062 26.113281 39.175781 29.050781 35.503906 29.050781 C 31.476562 29.050781 26.949219 24.90625 24.808594 22.503906 C 26.5625 20.546875 31.148438 15.945312 35.503906 15.945312 Z M 35.503906 15.945312 " fill-opacity="1" fill-rule="nonzero"/></g><g clip-path="url(#f8afe9ac6c)"><path fill="#cfd8dc" d="M 9.496094 31.859375 C 16.363281 31.859375 22.863281 23.714844 23.136719 23.367188 C 23.539062 22.855469 23.539062 22.136719 23.136719 21.628906 C 22.863281 21.28125 16.363281 13.132812 9.496094 13.132812 C 4.273438 13.132812 0.0273438 17.335938 0.0273438 22.496094 C 0.0273438 27.660156 4.273438 31.859375 9.496094 31.859375 Z M 20.191406 22.492188 C 18.4375 24.449219 13.851562 29.050781 9.496094 29.050781 C 5.824219 29.050781 2.835938 26.113281 2.835938 22.496094 C 2.835938 18.882812 5.824219 15.945312 9.496094 15.945312 C 13.523438 15.945312 18.050781 20.085938 20.191406 22.492188 Z M 20.191406 22.492188 " fill-opacity="1" fill-rule="nonzero"/></g><path fill="#cfd8dc" d="M 31.394531 23.902344 L 37.949219 23.902344 C 38.726562 23.902344 39.355469 23.273438 39.355469 22.496094 C 39.355469 21.722656 38.726562 21.09375 37.949219 21.09375 L 31.394531 21.09375 C 30.621094 21.09375 29.992188 21.722656 29.992188 22.496094 C 29.992188 23.273438 30.621094 23.902344 31.394531 23.902344 Z M 31.394531 23.902344 " fill-opacity="1" fill-rule="nonzero"/><path fill="#cfd8dc" d="M 36.078125 25.773438 L 36.078125 19.21875 C 36.078125 18.445312 35.449219 17.816406 34.671875 17.816406 C 33.898438 17.816406 33.269531 18.445312 33.269531 19.21875 L 33.269531 25.773438 C 33.269531 26.550781 33.898438 27.179688 34.671875 27.179688 C 35.449219 27.179688 36.078125 26.550781 36.078125 25.773438 Z M 36.078125 25.773438 " fill-opacity="1" fill-rule="nonzero"/><path fill="#cfd8dc" d="M 7.050781 23.902344 L 13.605469 23.902344 C 14.378906 23.902344 15.007812 23.273438 15.007812 22.496094 C 15.007812 21.722656 14.378906 21.09375 13.605469 21.09375 L 7.050781 21.09375 C 6.273438 21.09375 5.644531 21.722656 5.644531 22.496094 C 5.644531 23.273438 6.273438 23.902344 7.050781 23.902344 Z M 7.050781 23.902344 " fill-opacity="1" fill-rule="nonzero"/></svg>