<svg xmlns="http://www.w3.org/2000/svg" xmlns:xlink="http://www.w3.org/1999/xlink" width="60" zoomAndPan="magnify" viewBox="0 0 45 44.999999" height="60" preserveAspectRatio="xMidYMid meet" version="1.0"><path fill="#cfd8dc" d="M 41.25 0 L 3.75 0 C 1.679688 0 0 1.679688 0 3.75 L 0 41.25 C 0 43.320312 1.679688 45 3.75 45 L 41.25 45 C 43.320312 45 45 43.320312 45 41.25 L 45 3.75 C 45 1.679688 43.320312 0 41.25 0 Z M 33.398438 31.597656 L 33.398438 31.601562 C 33.023438 32.507812 32.429688 33.304688 31.667969 33.917969 C 30.882812 34.554688 29.882812 35.078125 28.65625 35.453125 C 27.429688 35.835938 25.96875 36.027344 24.28125 36.027344 L 12.222656 36.027344 L 12.222656 9.777344 L 24.976562 9.777344 C 27.332031 9.777344 29.222656 10.308594 30.636719 11.390625 C 32.0625 12.476562 32.769531 14.097656 32.769531 16.28125 C 32.769531 17.605469 32.449219 18.738281 31.800781 19.675781 C 31.15625 20.609375 30.226562 21.335938 29.023438 21.84375 L 29.023438 21.929688 C 30.625 22.265625 31.867188 23.027344 32.679688 24.207031 C 33.496094 25.390625 33.914062 26.882812 33.914062 28.683594 C 33.914062 29.691406 33.71875 30.652344 33.351562 31.546875 Z M 33.398438 31.597656 " fill-opacity="1" fill-rule="nonzero"/><path fill="#cfd8dc" d="M 28.195312 25.132812 C 27.425781 24.429688 26.34375 24.089844 24.949219 24.089844 L 16.847656 24.089844 L 16.847656 32.277344 L 24.972656 32.277344 C 26.359375 32.277344 27.449219 31.917969 28.21875 31.191406 C 28.984375 30.46875 29.378906 29.4375 29.378906 28.117188 C 29.367188 26.820312 28.984375 25.820312 28.21875 25.132812 Z M 28.195312 25.132812 " fill-opacity="1" fill-rule="nonzero"/><path fill="#cfd8dc" d="M 27.0625 19.839844 L 27.070312 19.839844 C 27.8125 19.210938 28.175781 18.308594 28.175781 17.132812 C 28.175781 15.8125 27.847656 14.875 27.183594 14.339844 C 26.523438 13.804688 25.570312 13.527344 24.316406 13.527344 L 16.816406 13.527344 L 16.816406 20.769531 L 24.316406 20.769531 C 25.410156 20.769531 26.34375 20.453125 27.0625 19.839844 Z M 27.0625 19.839844 " fill-opacity="1" fill-rule="nonzero"/></svg>