<svg xmlns="http://www.w3.org/2000/svg" xmlns:xlink="http://www.w3.org/1999/xlink" width="60" zoomAndPan="magnify" viewBox="0 0 45 44.999999" height="60" preserveAspectRatio="xMidYMid meet" version="1.0"><defs><clipPath id="2fe31a4201"><path d="M 0 0 L 45 0 L 45 44.773438 L 0 44.773438 Z M 0 0 " clip-rule="nonzero"/></clipPath></defs><g clip-path="url(#2fe31a4201)"><path fill="#aab1c1" d="M 32.097656 44.992188 C 31.800781 44.992188 31.515625 44.933594 31.242188 44.820312 C 30.964844 44.707031 30.722656 44.546875 30.515625 44.335938 C 30.304688 44.125 30.144531 43.882812 30.027344 43.609375 C 29.914062 43.335938 29.859375 43.050781 29.859375 42.753906 L 29.859375 36.933594 C 29.929688 36.257812 29.859375 35.59375 29.648438 34.945312 C 29.4375 34.300781 29.105469 33.722656 28.648438 33.21875 C 28.367188 32.910156 28.183594 32.550781 28.101562 32.140625 C 28.019531 31.726562 28.050781 31.324219 28.191406 30.933594 C 28.335938 30.539062 28.574219 30.210938 28.898438 29.949219 C 29.226562 29.6875 29.597656 29.53125 30.015625 29.480469 C 35.476562 28.832031 40.511719 27.085938 40.511719 17.617188 C 40.515625 15.808594 40.015625 14.152344 39.011719 12.648438 C 38.5625 11.96875 38.253906 11.230469 38.097656 10.433594 C 37.9375 9.632812 37.9375 8.835938 38.09375 8.035156 C 38.300781 6.984375 38.300781 5.933594 38.09375 4.878906 C 36.410156 5.449219 34.851562 6.265625 33.417969 7.320312 C 32.84375 7.726562 32.21875 7.839844 31.539062 7.65625 C 29.519531 7.085938 27.457031 6.800781 25.359375 6.800781 C 23.261719 6.800781 21.203125 7.085938 19.183594 7.65625 C 18.503906 7.839844 17.875 7.726562 17.300781 7.320312 C 15.859375 6.25 14.285156 5.4375 12.578125 4.878906 C 12.363281 5.933594 12.363281 6.984375 12.578125 8.035156 C 12.726562 8.84375 12.714844 9.652344 12.550781 10.457031 C 12.382812 11.261719 12.070312 12.007812 11.617188 12.691406 C 10.621094 14.207031 10.121094 15.871094 10.117188 17.683594 C 10.117188 26.390625 14.324219 28.71875 20.636719 29.523438 C 21.058594 29.578125 21.433594 29.734375 21.765625 30 C 22.09375 30.269531 22.332031 30.601562 22.472656 31 C 22.605469 31.390625 22.628906 31.785156 22.542969 32.183594 C 22.460938 32.585938 22.28125 32.9375 22.003906 33.238281 C 21.5625 33.710938 21.234375 34.25 21.019531 34.855469 C 20.808594 35.464844 20.722656 36.089844 20.769531 36.730469 L 20.769531 42.753906 C 20.769531 43.050781 20.714844 43.335938 20.601562 43.609375 C 20.488281 43.882812 20.324219 44.125 20.117188 44.335938 C 19.90625 44.546875 19.664062 44.707031 19.390625 44.820312 C 19.117188 44.933594 18.828125 44.992188 18.53125 44.992188 C 18.234375 44.992188 17.949219 44.933594 17.675781 44.820312 C 17.402344 44.707031 17.160156 44.546875 16.949219 44.335938 C 16.742188 44.125 16.578125 43.882812 16.464844 43.609375 C 16.351562 43.335938 16.292969 43.050781 16.292969 42.753906 L 16.292969 41.476562 C 15.195312 41.601562 14.097656 41.59375 13 41.449219 C 11.902344 41.304688 10.839844 41.027344 9.808594 40.617188 C 8.78125 40.210938 7.816406 39.683594 6.917969 39.035156 C 6.019531 38.390625 5.214844 37.644531 4.5 36.796875 C 3.757812 35.976562 2.894531 35.320312 1.902344 34.828125 C 1.613281 34.753906 1.351562 34.628906 1.113281 34.449219 C 0.875 34.269531 0.683594 34.054688 0.53125 33.796875 C 0.378906 33.542969 0.28125 33.265625 0.242188 32.972656 C 0.199219 32.675781 0.214844 32.386719 0.289062 32.097656 C 0.363281 31.808594 0.492188 31.546875 0.667969 31.308594 C 0.847656 31.070312 1.066406 30.878906 1.320312 30.726562 C 1.578125 30.574219 1.855469 30.480469 2.148438 30.4375 C 2.441406 30.394531 2.734375 30.414062 3.023438 30.488281 C 4.769531 31.125 6.261719 32.136719 7.5 33.53125 C 9.738281 35.769531 11.976562 37.738281 16.226562 36.933594 C 16.152344 35.71875 16.324219 34.539062 16.742188 33.394531 C 12.132812 32.234375 5.550781 28.917969 5.550781 17.726562 C 5.542969 15.019531 6.289062 12.535156 7.789062 10.273438 C 8.070312 9.851562 8.167969 9.390625 8.082031 8.886719 C 7.617188 6.417969 7.863281 4.023438 8.820312 1.703125 C 9.089844 1.054688 9.558594 0.632812 10.230469 0.425781 C 10.988281 0.203125 13.71875 -0.246094 18.890625 3.113281 C 23.136719 2.089844 27.382812 2.089844 31.625 3.113281 C 36.796875 -0.246094 39.527344 0.179688 40.265625 0.425781 C 40.9375 0.632812 41.40625 1.054688 41.675781 1.703125 C 42.632812 4.03125 42.878906 6.433594 42.414062 8.910156 C 42.320312 9.371094 42.402344 9.792969 42.660156 10.183594 C 44.164062 12.449219 44.910156 14.941406 44.898438 17.660156 C 44.898438 29.007812 38.363281 32.300781 33.707031 33.328125 C 34.121094 34.542969 34.285156 35.789062 34.199219 37.066406 L 34.199219 42.753906 C 34.203125 43.039062 34.148438 43.3125 34.042969 43.578125 C 33.9375 43.84375 33.789062 44.082031 33.59375 44.289062 C 33.398438 44.496094 33.171875 44.664062 32.914062 44.785156 C 32.652344 44.90625 32.382812 44.972656 32.097656 44.992188 Z M 32.097656 44.992188 " fill-opacity="1" fill-rule="nonzero"/></g></svg>