<svg xmlns="http://www.w3.org/2000/svg" xmlns:xlink="http://www.w3.org/1999/xlink" width="60" zoomAndPan="magnify" viewBox="0 0 45 44.999999" height="60" preserveAspectRatio="xMidYMid meet" version="1.0"><defs><clipPath id="453aafba3d"><path d="M 2.804688 0 L 42.554688 0 L 42.554688 44.25 L 2.804688 44.25 Z M 2.804688 0 " clip-rule="nonzero"/></clipPath></defs><g clip-path="url(#453aafba3d)"><path fill="#aab1c1" d="M 41.972656 0.367188 C 41.792969 0.167969 41.535156 0.0546875 41.265625 0.0546875 L 3.824219 0.0546875 C 3.554688 0.0546875 3.296875 0.167969 3.117188 0.367188 C 2.933594 0.5625 2.84375 0.832031 2.867188 1.097656 L 6.242188 38.882812 C 6.277344 39.277344 6.550781 39.609375 6.933594 39.71875 L 22.277344 44.101562 C 22.363281 44.125 22.449219 44.136719 22.539062 44.136719 C 22.628906 44.136719 22.71875 44.125 22.800781 44.101562 L 38.160156 39.71875 C 38.539062 39.609375 38.816406 39.277344 38.851562 38.882812 L 42.222656 1.097656 C 42.246094 0.828125 42.15625 0.5625 41.972656 0.367188 Z M 33.898438 13.394531 L 15.871094 13.394531 L 16.300781 18.269531 L 33.464844 18.269531 L 32.175781 32.683594 L 22.539062 35.597656 L 22.445312 35.570312 L 12.917969 32.683594 L 12.398438 26.808594 L 17.0625 26.808594 L 17.269531 29.089844 L 22.59375 30.203125 L 27.820312 29.085938 L 28.378906 22.921875 L 12.046875 22.921875 L 10.78125 8.730469 L 34.316406 8.730469 Z M 33.898438 13.394531 " fill-opacity="1" fill-rule="nonzero"/></g></svg>