<svg xmlns="http://www.w3.org/2000/svg" xmlns:xlink="http://www.w3.org/1999/xlink" width="60" zoomAndPan="magnify" viewBox="0 0 45 44.999999" height="60" preserveAspectRatio="xMidYMid meet" version="1.0"><path fill="#cfd8dc" d="M 41.699219 0.429688 L 3.371094 0.429688 C 1.832031 0.429688 0.582031 1.679688 0.582031 3.21875 L 0.582031 41.546875 C 0.582031 43.085938 1.832031 44.335938 3.371094 44.335938 L 41.695312 44.335938 C 43.234375 44.335938 44.484375 43.085938 44.484375 41.550781 L 44.484375 3.21875 C 44.484375 1.679688 43.234375 0.429688 41.699219 0.429688 Z M 24.625 34.074219 C 24.625 38.25 22.171875 40.152344 18.597656 40.152344 C 15.363281 40.152344 13.03125 37.984375 12.078125 35.972656 L 15.367188 33.984375 C 16 35.105469 16.964844 35.972656 18.351562 35.972656 C 19.679688 35.972656 20.441406 35.453125 20.441406 33.4375 L 20.441406 20.292969 L 24.625 20.292969 Z M 33.691406 40.152344 C 29.988281 40.152344 27.886719 38.285156 26.714844 35.972656 L 29.851562 33.882812 C 30.703125 35.277344 31.632812 36.613281 33.601562 36.613281 C 35.257812 36.613281 36.121094 35.789062 36.121094 34.644531 C 36.121094 33.28125 35.222656 32.796875 33.40625 32 L 32.410156 31.570312 C 29.53125 30.34375 27.617188 28.808594 27.617188 25.558594 C 27.617188 22.570312 29.898438 20.292969 33.460938 20.292969 C 35.996094 20.292969 37.816406 21.175781 39.132812 23.484375 L 36.027344 25.480469 C 35.34375 24.253906 34.605469 23.769531 33.460938 23.769531 C 32.292969 23.769531 31.550781 24.515625 31.550781 25.480469 C 31.550781 26.679688 32.292969 27.160156 34.003906 27.902344 L 35 28.332031 C 38.390625 29.78125 40.304688 31.265625 40.304688 34.597656 C 40.304688 38.183594 37.480469 40.152344 33.691406 40.152344 Z M 33.691406 40.152344 " fill-opacity="1" fill-rule="nonzero"/></svg>