<svg xmlns="http://www.w3.org/2000/svg" xmlns:xlink="http://www.w3.org/1999/xlink" width="60" zoomAndPan="magnify" viewBox="0 0 45 44.999999" height="60" preserveAspectRatio="xMidYMid meet" version="1.0"><path fill="#aab1c1" d="M 28.125 3.75 C 25.585938 3.75 23.496094 6.015625 22.773438 9.230469 C 21.375 8.839844 19.441406 8.4375 17.34375 8.4375 C 10.191406 8.4375 6.5625 14.746094 6.5625 27.1875 L 1.875 27.1875 C 0.839844 27.1875 0 28.027344 0 29.0625 C 0 30.097656 0.839844 30.9375 1.875 30.9375 L 6.820312 30.9375 C 7.984375 38.972656 12.886719 41.25 15.9375 41.25 C 20.0625 41.25 21.5625 38.378906 21.5625 36.445312 C 21.5625 33.070312 19.351562 31.875 17.460938 31.875 C 15.230469 31.875 14.0625 33.40625 14.0625 34.921875 C 14.0625 36.417969 15.097656 37.5 16.523438 37.5 C 17.917969 37.5 18.75 36.546875 18.75 35.625 C 18.75 35.105469 18.328125 34.6875 17.8125 34.6875 C 17.324219 34.6875 16.925781 35.058594 16.878906 35.53125 C 16.835938 35.566406 16.722656 35.625 16.523438 35.625 C 16.039062 35.625 15.9375 35.242188 15.9375 34.921875 C 15.9375 34.800781 15.980469 33.75 17.460938 33.75 C 18.292969 33.75 19.6875 34.101562 19.6875 36.445312 C 19.6875 36.566406 19.644531 39.375 15.9375 39.375 C 13.566406 39.375 9.859375 37.335938 9.421875 30.9375 L 12.515625 30.9375 C 13.066406 31.472656 13.597656 31.753906 13.644531 31.777344 C 13.777344 31.84375 13.921875 31.875 14.0625 31.875 C 14.402344 31.875 14.730469 31.6875 14.894531 31.359375 C 14.964844 31.226562 14.988281 31.082031 14.988281 30.9375 L 23.179688 30.9375 C 23.351562 31.191406 23.53125 31.421875 23.710938 31.601562 C 23.894531 31.78125 24.136719 31.875 24.375 31.875 C 24.613281 31.875 24.851562 31.78125 25.035156 31.601562 C 25.21875 31.417969 25.3125 31.175781 25.3125 30.9375 L 30 30.9375 C 30 31.691406 30.625 32.8125 32.34375 32.8125 C 33.710938 32.8125 34.429688 31.746094 34.640625 31.117188 C 34.660156 31.058594 34.65625 30.996094 34.660156 30.9375 L 37.5 30.9375 L 37.5 30.933594 L 44.558594 29.515625 C 45.148438 29.398438 45.148438 28.726562 44.558594 28.609375 L 37.5 27.1875 L 34.660156 27.1875 C 34.65625 27.128906 34.660156 27.066406 34.636719 27.007812 C 34.429688 26.378906 33.710938 25.3125 32.34375 25.3125 C 32.300781 25.3125 32.269531 25.320312 32.226562 25.320312 C 32.226562 25.316406 32.222656 25.308594 32.21875 25.304688 C 32.261719 25.304688 32.300781 25.3125 32.34375 25.3125 C 36.386719 25.3125 41.25 21.859375 41.25 19.6875 C 41.25 18.867188 40.734375 17.839844 40.246094 17.046875 C 40.695312 16.683594 41.121094 16.269531 41.496094 15.796875 C 42.753906 14.21875 43.324219 12.320312 43.066406 10.589844 C 42.863281 9.257812 42.175781 8.128906 41.121094 7.40625 C 38.929688 5.902344 35.628906 6.503906 33.339844 8.683594 C 32.511719 5.761719 30.515625 3.75 28.125 3.75 Z M 28.125 5.625 C 30.15625 5.625 31.875 8.414062 31.875 11.71875 C 31.875 15.023438 30.15625 17.8125 28.125 17.8125 C 26.09375 17.8125 24.375 15.023438 24.375 11.71875 C 24.375 8.414062 26.09375 5.625 28.125 5.625 Z M 38.261719 8.429688 C 38.921875 8.429688 39.542969 8.597656 40.0625 8.953125 C 40.855469 9.496094 41.125 10.292969 41.210938 10.867188 C 41.390625 12.082031 40.960938 13.457031 40.027344 14.628906 C 38.363281 16.722656 35.660156 17.496094 34 16.359375 C 33.585938 16.074219 33.316406 15.722656 33.140625 15.367188 C 33.527344 14.277344 33.75 13.042969 33.75 11.71875 C 33.75 11.511719 33.738281 11.308594 33.726562 11.101562 C 33.824219 10.960938 33.925781 10.820312 34.035156 10.683594 C 35.179688 9.246094 36.8125 8.429688 38.261719 8.429688 Z M 26.71875 11.25 C 26.53125 11.25 26.351562 11.285156 26.179688 11.355469 C 26.007812 11.429688 25.855469 11.53125 25.722656 11.660156 C 25.59375 11.792969 25.492188 11.945312 25.417969 12.117188 C 25.347656 12.289062 25.3125 12.46875 25.3125 12.65625 C 25.3125 12.84375 25.347656 13.023438 25.417969 13.195312 C 25.492188 13.367188 25.59375 13.519531 25.722656 13.652344 C 25.855469 13.78125 26.007812 13.882812 26.179688 13.957031 C 26.351562 14.027344 26.53125 14.0625 26.71875 14.0625 C 26.90625 14.0625 27.085938 14.027344 27.257812 13.957031 C 27.429688 13.882812 27.582031 13.78125 27.714844 13.652344 C 27.84375 13.519531 27.945312 13.367188 28.019531 13.195312 C 28.089844 13.023438 28.125 12.84375 28.125 12.65625 C 28.125 12.46875 28.089844 12.289062 28.019531 12.117188 C 27.945312 11.945312 27.84375 11.792969 27.714844 11.660156 C 27.582031 11.53125 27.429688 11.429688 27.257812 11.355469 C 27.085938 11.285156 26.90625 11.25 26.71875 11.25 Z M 39.375 11.25 C 39.117188 11.25 38.894531 11.339844 38.710938 11.523438 C 38.527344 11.707031 38.4375 11.929688 38.4375 12.1875 C 38.4375 12.445312 38.527344 12.667969 38.710938 12.851562 C 38.894531 13.035156 39.117188 13.125 39.375 13.125 C 39.632812 13.125 39.855469 13.035156 40.039062 12.851562 C 40.222656 12.667969 40.3125 12.445312 40.3125 12.1875 C 40.3125 11.929688 40.222656 11.707031 40.039062 11.523438 C 39.855469 11.339844 39.632812 11.25 39.375 11.25 Z M 14.46875 23.738281 C 15.074219 24.097656 15.839844 24.4375 16.796875 24.710938 C 16.707031 25.523438 16.5 26.484375 15.9375 27.1875 L 15 27.1875 C 14.664062 26.835938 14.0625 26.25 14.0625 25.3125 C 14.0625 24.769531 14.246094 24.21875 14.46875 23.738281 Z M 11.9375 23.757812 C 11.929688 23.960938 11.917969 24.160156 11.941406 24.375 C 11.972656 24.730469 12.132812 25.296875 12.347656 25.847656 C 11.625 26.386719 11.25 27.257812 11.25 28.125 C 11.25 28.742188 11.398438 29.277344 11.621094 29.734375 C 10.054688 29.113281 9.882812 27.5625 9.867188 27.230469 C 10.109375 25.863281 11.03125 24.628906 11.9375 23.757812 Z M 28.910156 23.8125 C 29.023438 24.875 29.398438 25.851562 30.078125 26.726562 C 30.03125 26.886719 30 27.042969 30 27.1875 C 30 27.277344 30.027344 27.359375 30.050781 27.441406 C 30.054688 27.785156 30.074219 28.191406 30.152344 28.710938 C 29.5 28.21875 29.121094 27.65625 28.898438 27.1875 L 26.179688 27.1875 C 26.039062 26.84375 25.707031 26.601562 25.3125 26.601562 C 25.015625 26.601562 24.753906 26.617188 24.492188 26.628906 C 24.230469 26.140625 24.171875 25.632812 24.191406 25.164062 C 26.476562 24.890625 27.992188 24.304688 28.910156 23.8125 Z M 19.34375 25.1875 C 20.027344 25.257812 20.75 25.3125 21.5625 25.3125 C 21.585938 25.3125 21.601562 25.3125 21.625 25.3125 C 21.746094 25.941406 21.980469 26.640625 22.441406 27.328125 C 22.375 27.664062 22.296875 28.351562 22.472656 29.53125 C 21.304688 28.648438 21.007812 27.539062 20.941406 27.1875 L 18.234375 27.1875 C 18.695312 26.527344 19.078125 25.828125 19.34375 25.1875 Z M 19.34375 25.1875 " fill-opacity="1" fill-rule="nonzero"/></svg>