<svg xmlns="http://www.w3.org/2000/svg" xmlns:xlink="http://www.w3.org/1999/xlink" width="60" zoomAndPan="magnify" viewBox="0 0 45 44.999999" height="60" preserveAspectRatio="xMidYMid meet" version="1.0"><defs><clipPath id="cfec7d092e"><path d="M 1.800781 0 L 43 0 L 43 45 L 1.800781 45 Z M 1.800781 0 " clip-rule="nonzero"/></clipPath></defs><g clip-path="url(#cfec7d092e)"><path fill="#cfd8dc" d="M 20.535156 0.199219 C 9.328125 0.199219 1.800781 4.351562 1.800781 8.226562 C 1.800781 12.101562 9.328125 16.253906 20.535156 16.253906 C 31.738281 16.253906 39.265625 12.101562 39.265625 8.226562 C 39.265625 4.351562 31.738281 0.199219 20.535156 0.199219 Z M 1.800781 12.339844 L 1.800781 17.28125 C 1.800781 21.09375 9.328125 25.175781 20.535156 25.175781 C 31.738281 25.175781 39.265625 21.09375 39.265625 17.28125 L 39.265625 12.339844 C 35.988281 15.6875 28.929688 18.039062 20.535156 18.039062 C 12.136719 18.039062 5.078125 15.6875 1.800781 12.339844 Z M 1.800781 21.527344 L 1.800781 26.242188 C 1.800781 29.324219 6.722656 32.550781 14.527344 33.679688 L 14.613281 33.203125 L 20.855469 33.203125 C 21.949219 33.203125 22.917969 33.480469 23.722656 33.972656 C 23.816406 33.964844 23.914062 33.960938 24.011719 33.953125 L 24.914062 29.636719 L 30.898438 29.636719 L 30.207031 32.941406 C 35.847656 31.46875 39.265625 28.804688 39.265625 26.242188 L 39.265625 21.527344 C 35.988281 24.875 28.929688 26.960938 20.535156 26.960938 C 12.136719 26.960938 5.078125 24.875 1.800781 21.527344 Z M 1.800781 30.488281 L 1.800781 35.121094 C 1.800781 37.988281 6.058594 41.007812 12.929688 42.328125 L 14.195312 35.460938 C 8.667969 34.703125 4.210938 32.949219 1.800781 30.488281 Z M 39.265625 30.488281 C 38.25 31.527344 36.867188 32.4375 35.199219 33.203125 L 39.265625 33.203125 Z M 26.363281 31.421875 L 24.125 42.125 L 26.46875 42.125 L 27.597656 36.773438 L 29.46875 36.773438 C 30.066406 36.773438 30.460938 36.871094 30.644531 37.070312 C 30.824219 37.269531 30.867188 37.644531 30.761719 38.1875 L 29.90625 42.125 L 32.285156 42.125 L 33.210938 37.863281 C 33.410156 36.84375 33.257812 36.089844 32.761719 35.636719 C 32.257812 35.175781 31.371094 34.988281 30.046875 34.988281 L 27.957031 34.988281 L 28.703125 31.421875 Z M 16.097656 34.988281 L 14.289062 44.800781 L 16.648438 44.800781 L 17.121094 42.125 L 18.585938 42.125 C 21.660156 42.125 23.335938 41.414062 23.960938 38.773438 C 24.496094 36.507812 23.121094 34.988281 20.855469 34.988281 Z M 34.828125 34.988281 L 33.019531 44.800781 L 35.382812 44.800781 L 35.851562 42.125 L 37.320312 42.125 C 40.394531 42.125 42.066406 41.414062 42.691406 38.773438 C 43.230469 36.507812 41.855469 34.988281 39.589844 34.988281 Z M 18.125 36.773438 L 19.964844 36.773438 C 21.488281 36.773438 21.808594 37.460938 21.726562 38.222656 C 21.523438 40.191406 20.296875 40.339844 18.976562 40.339844 L 17.453125 40.339844 Z M 36.859375 36.773438 L 38.695312 36.773438 C 40.21875 36.773438 40.539062 37.460938 40.460938 38.222656 C 40.257812 40.191406 39.03125 40.339844 37.710938 40.339844 L 36.183594 40.339844 Z M 36.859375 36.773438 " fill-opacity="1" fill-rule="nonzero"/></g></svg>