<svg xmlns="http://www.w3.org/2000/svg" xmlns:xlink="http://www.w3.org/1999/xlink" width="60" zoomAndPan="magnify" viewBox="0 0 45 44.999999" height="60" preserveAspectRatio="xMidYMid meet" version="1.0"><defs><clipPath id="a711e19e39"><path d="M 5.992188 0 L 38.992188 0 L 38.992188 45 L 5.992188 45 Z M 5.992188 0 " clip-rule="nonzero"/></clipPath></defs><g clip-path="url(#a711e19e39)"><path fill="#aab1c1" d="M 5.996094 6 L 5.996094 39 C 5.996094 40.160156 6.753906 41.398438 8.421875 42.367188 C 11.0625 43.894531 16.367188 45 22.496094 45 C 28.625 45 33.929688 43.894531 36.574219 42.367188 C 38.242188 41.398438 38.996094 40.160156 38.996094 39 C 38.996094 39 38.996094 5.972656 38.996094 5.972656 C 38.984375 4.820312 38.226562 3.59375 36.574219 2.632812 C 33.929688 1.105469 28.625 0 22.496094 0 C 16.367188 0 11.0625 1.105469 8.421875 2.632812 C 6.753906 3.601562 5.996094 4.839844 5.996094 6 Z M 35.996094 31.421875 C 33.203125 32.789062 28.207031 33.75 22.496094 33.75 C 16.785156 33.75 11.785156 32.789062 8.996094 31.421875 L 8.996094 39 C 8.996094 39.125 9.140625 39.195312 9.265625 39.308594 C 9.65625 39.660156 10.238281 39.972656 10.960938 40.269531 C 13.5625 41.332031 17.765625 42 22.496094 42 C 27.230469 42 31.429688 41.332031 34.03125 40.269531 C 34.753906 39.972656 35.335938 39.660156 35.726562 39.308594 C 35.851562 39.195312 35.996094 39.125 35.996094 39 Z M 35.996094 20.921875 C 33.203125 22.289062 28.207031 23.25 22.496094 23.25 C 16.785156 23.25 11.785156 22.289062 8.996094 20.921875 L 8.996094 27.75 C 8.996094 27.878906 9.144531 27.949219 9.273438 28.0625 C 9.667969 28.417969 10.253906 28.730469 10.976562 29.023438 C 13.578125 30.085938 17.773438 30.75 22.496094 30.75 C 27.230469 30.75 31.429688 30.082031 34.03125 29.019531 C 34.753906 28.722656 35.335938 28.410156 35.726562 28.058594 C 35.851562 27.945312 35.996094 27.875 35.996094 27.75 Z M 35.996094 9.671875 C 33.203125 11.039062 28.207031 12 22.496094 12 C 16.789062 12 11.789062 11.039062 8.996094 9.671875 L 8.996094 17.25 C 8.996094 17.378906 9.144531 17.449219 9.273438 17.5625 C 9.667969 17.917969 10.253906 18.230469 10.976562 18.523438 C 13.578125 19.585938 17.773438 20.25 22.496094 20.25 C 27.230469 20.25 31.429688 19.582031 34.03125 18.519531 C 34.753906 18.222656 35.335938 17.910156 35.726562 17.558594 C 35.851562 17.445312 35.996094 17.375 35.996094 17.25 Z M 22.496094 3 C 27.230469 3 31.429688 3.667969 34.03125 4.730469 C 34.753906 5.027344 35.335938 5.339844 35.726562 5.691406 C 35.851562 5.804688 35.996094 5.875 35.996094 6 C 35.996094 6.125 35.851562 6.195312 35.726562 6.308594 C 35.335938 6.660156 34.753906 6.972656 34.03125 7.269531 C 31.429688 8.332031 27.230469 9 22.496094 9 C 17.765625 9 13.5625 8.332031 10.960938 7.269531 C 10.238281 6.972656 9.65625 6.660156 9.265625 6.308594 C 9.140625 6.195312 8.996094 6.125 8.996094 6 C 8.996094 5.875 9.140625 5.804688 9.265625 5.691406 C 9.65625 5.339844 10.238281 5.027344 10.960938 4.730469 C 13.5625 3.667969 17.765625 3 22.496094 3 Z M 22.496094 3 " fill-opacity="1" fill-rule="evenodd"/></g></svg>