<svg xmlns="http://www.w3.org/2000/svg" xmlns:xlink="http://www.w3.org/1999/xlink" width="60" zoomAndPan="magnify" viewBox="0 0 45 44.999999" height="60" preserveAspectRatio="xMidYMid meet" version="1.0"><defs><clipPath id="bda04fc0f9"><path d="M 0 0.0742188 L 45 0.0742188 L 45 45 L 0 45 Z M 0 0.0742188 " clip-rule="nonzero"/></clipPath></defs><g clip-path="url(#bda04fc0f9)"><path fill="#aab1c1" d="M 33.746094 0.0742188 L 33.746094 38.722656 L 0 33.710938 L 33.746094 45.074219 L 44.996094 40.394531 L 44.996094 5.449219 L 45 5.449219 L 44.996094 5.441406 L 44.996094 4.753906 Z M 21.9375 6.660156 L 11.601562 16.875 L 5.378906 12.1875 L 2.8125 13.046875 L 9.144531 19.304688 L 2.8125 25.5625 L 5.378906 26.417969 L 11.601562 21.730469 L 21.9375 31.949219 L 28.125 29.320312 L 28.125 9.289062 Z M 21.9375 13.949219 L 21.9375 24.660156 L 14.824219 19.300781 Z M 21.9375 13.949219 " fill-opacity="1" fill-rule="nonzero"/></g></svg>